<svg width="26" height="26" viewBox="0 0 26 26" fill="none" xmlns="http://www.w3.org/2000/svg">
<path d="M3.16602 7.67779C3.16602 7.11678 3.38888 6.57875 3.78557 6.18205C4.18226 5.78536 4.72029 5.5625 5.2813 5.5625H20.0883C20.6493 5.5625 21.1874 5.78536 21.584 6.18205C21.9807 6.57875 22.2036 7.11678 22.2036 7.67779V18.2542C22.2036 18.8152 21.9807 19.3533 21.584 19.75C21.1874 20.1466 20.6493 20.3695 20.0883 20.3695H5.2813C4.72029 20.3695 4.18226 20.1466 3.78557 19.75C3.38888 19.3533 3.16602 18.8152 3.16602 18.2542V7.67779Z" stroke="#292F78" stroke-width="2.11529" stroke-linecap="round" stroke-linejoin="round"/>
<path d="M3.16602 7.67773L12.6848 14.0236L22.2036 7.67773" stroke="#292F78" stroke-width="2.11529" stroke-linecap="round" stroke-linejoin="round"/>
</svg>
