<svg width="22" height="22" viewBox="0 0 22 22" fill="none" xmlns="http://www.w3.org/2000/svg">
<path d="M15.509 13.0804C15.5937 12.3823 15.6571 11.6843 15.6571 10.9651C15.6571 10.2459 15.5937 9.54786 15.509 8.84982H19.0839C19.2531 9.52671 19.3589 10.2353 19.3589 10.9651C19.3589 11.6949 19.2531 12.4035 19.0839 13.0804M13.637 18.9609C14.2716 17.7869 14.7581 16.5177 15.0966 15.1957H18.2166C17.1919 16.9601 15.5663 18.2967 13.637 18.9609ZM13.3726 13.0804H8.42284C8.31707 12.3823 8.25361 11.6843 8.25361 10.9651C8.25361 10.2459 8.31707 9.53729 8.42284 8.84982H13.3726C13.4678 9.53729 13.5418 10.2459 13.5418 10.9651C13.5418 11.6843 13.4678 12.3823 13.3726 13.0804ZM10.8977 19.3839C10.0199 18.1148 9.31126 16.7081 8.87762 15.1957H12.9178C12.4842 16.7081 11.7756 18.1148 10.8977 19.3839ZM6.66715 6.73453H3.57883C4.59273 4.96513 6.21729 3.62637 8.14785 2.96932C7.51326 4.14331 7.03732 5.41248 6.66715 6.73453ZM3.57883 15.1957H6.66715C7.03732 16.5177 7.51326 17.7869 8.14785 18.9609C6.22111 18.297 4.5987 16.96 3.57883 15.1957ZM2.71156 13.0804C2.54234 12.4035 2.43658 11.6949 2.43658 10.9651C2.43658 10.2353 2.54234 9.52671 2.71156 8.84982H6.2864C6.20179 9.54786 6.13833 10.2459 6.13833 10.9651C6.13833 11.6843 6.20179 12.3823 6.2864 13.0804M10.8977 2.53569C11.7756 3.80486 12.4842 5.2221 12.9178 6.73453H8.87762C9.31126 5.2221 10.0199 3.80486 10.8977 2.53569ZM18.2166 6.73453H15.0966C14.765 5.42476 14.2749 4.16034 13.637 2.96932C15.5831 3.63564 17.2013 4.97884 18.2166 6.73453ZM10.8977 0.388672C5.04895 0.388672 0.321289 5.14807 0.321289 10.9651C0.321289 13.7701 1.43559 16.4603 3.41905 18.4438C4.40117 19.4259 5.5671 20.2049 6.8503 20.7365C8.13349 21.268 9.50881 21.5415 10.8977 21.5415C13.7028 21.5415 16.3929 20.4272 18.3764 18.4438C20.3599 16.4603 21.4742 13.7701 21.4742 10.9651C21.4742 9.57619 21.2006 8.20087 20.6691 6.91768C20.1376 5.63449 19.3585 4.46855 18.3764 3.48644C17.3943 2.50432 16.2283 1.72527 14.9451 1.19375C13.662 0.662239 12.2866 0.388672 10.8977 0.388672Z" fill="#292F78"/>
</svg>
