<svg width="33" height="33" viewBox="0 0 33 33" fill="none" xmlns="http://www.w3.org/2000/svg">
<path d="M16.5664 0.375C7.57091 0.375 0.210938 7.71862 0.210938 16.7632C0.210938 24.941 6.19705 31.7285 14.015 32.9551V21.5063H9.86068V16.7632H14.015V13.1486C14.015 9.04341 16.4519 6.78636 20.1974 6.78636C21.9801 6.78636 23.8446 7.09711 23.8446 7.09711V11.1369H21.7838C19.7558 11.1369 19.1179 12.3963 19.1179 13.6884V16.7632H23.6647L22.9287 21.5063H19.1179V32.9551C22.972 32.3465 26.4815 30.38 29.0129 27.4107C31.5442 24.4415 32.9307 20.665 32.9219 16.7632C32.9219 7.71862 25.562 0.375 16.5664 0.375Z" fill="white"/>
</svg>
