<svg width="33" height="34" viewBox="0 0 33 34" fill="none" xmlns="http://www.w3.org/2000/svg">
<path d="M18.3078 0.310547C20.1478 0.315454 21.0817 0.325267 21.888 0.348165L22.2053 0.359613C22.5717 0.372698 22.9331 0.389053 23.3698 0.40868C25.11 0.490457 26.2975 0.76523 27.3393 1.16921C28.4188 1.58464 29.3281 2.14727 30.2375 3.055C31.0695 3.87234 31.7131 4.86142 32.1233 5.95319C32.5273 6.99504 32.802 8.18245 32.8838 9.92431C32.9034 10.3594 32.9198 10.7208 32.9329 11.0888L32.9427 11.4061C32.9672 12.2108 32.977 13.1447 32.9803 14.9847L32.9819 16.2048V18.3474C32.9859 19.5404 32.9734 20.7333 32.9443 21.926L32.9345 22.2433C32.9214 22.6113 32.9051 22.9727 32.8854 23.4078C32.8037 25.1496 32.5256 26.3354 32.1233 27.3789C31.7131 28.4707 31.0695 29.4598 30.2375 30.2771C29.4202 31.1091 28.4311 31.7527 27.3393 32.1629C26.2975 32.5669 25.11 32.8416 23.3698 32.9234L22.2053 32.9725L21.888 32.9823C21.0817 33.0052 20.1478 33.0166 18.3078 33.0199L17.0877 33.0215H14.9467C13.7532 33.0258 12.5597 33.0132 11.3665 32.9839L11.0492 32.9741C10.661 32.9594 10.2728 32.9425 9.88471 32.9234C8.14449 32.8416 6.95708 32.5669 5.9136 32.1629C4.82241 31.7524 3.8339 31.1089 3.01704 30.2771C2.18445 29.4599 1.54031 28.4708 1.12961 27.3789C0.725633 26.337 0.45086 25.1496 0.369083 23.4078L0.320016 22.2433L0.311839 21.926C0.281689 20.7334 0.268058 19.5404 0.27095 18.3474V14.9847C0.266423 13.7917 0.278418 12.5988 0.306932 11.4061L0.318381 11.0888C0.331465 10.7208 0.347821 10.3594 0.367447 9.92431C0.449225 8.18245 0.723997 6.99667 1.12798 5.95319C1.53964 4.86097 2.18491 3.87185 3.01867 3.055C3.83506 2.2234 4.82299 1.57985 5.9136 1.16921C6.95708 0.76523 8.14285 0.490457 9.88471 0.40868C10.3198 0.389053 10.6829 0.372698 11.0492 0.359613L11.3665 0.3498C12.5592 0.320741 13.7521 0.3082 14.9451 0.312182L18.3078 0.310547ZM16.6264 8.4883C14.4576 8.4883 12.3775 9.34988 10.8439 10.8835C9.31028 12.4171 8.4487 14.4972 8.4487 16.666C8.4487 18.8349 9.31028 20.915 10.8439 22.4486C12.3775 23.9822 14.4576 24.8438 16.6264 24.8438C18.7953 24.8438 20.8754 23.9822 22.409 22.4486C23.9426 20.915 24.8042 18.8349 24.8042 16.666C24.8042 14.4972 23.9426 12.4171 22.409 10.8835C20.8754 9.34988 18.7953 8.4883 16.6264 8.4883ZM16.6264 11.7594C17.2708 11.7593 17.9089 11.8861 18.5042 12.1326C19.0995 12.3791 19.6405 12.7404 20.0962 13.1959C20.5519 13.6515 20.9134 14.1923 21.1601 14.7876C21.4068 15.3829 21.5338 16.0209 21.5339 16.6652C21.534 17.3096 21.4072 17.9476 21.1607 18.543C20.9142 19.1383 20.5529 19.6793 20.0974 20.135C19.6418 20.5907 19.101 20.9522 18.5057 21.1989C17.9105 21.4456 17.2724 21.5726 16.6281 21.5727C15.3268 21.5727 14.0787 21.0557 13.1586 20.1356C12.2384 19.2154 11.7214 17.9674 11.7214 16.666C11.7214 15.3647 12.2384 14.1167 13.1586 13.1965C14.0787 12.2763 15.3268 11.7594 16.6281 11.7594M25.2147 6.03497C24.6725 6.03497 24.1525 6.25037 23.7691 6.63377C23.3857 7.01718 23.1703 7.53719 23.1703 8.07941C23.1703 8.62163 23.3857 9.14164 23.7691 9.52504C24.1525 9.90845 24.6725 10.1238 25.2147 10.1238C25.7569 10.1238 26.2769 9.90845 26.6604 9.52504C27.0438 9.14164 27.2592 8.62163 27.2592 8.07941C27.2592 7.53719 27.0438 7.01718 26.6604 6.63377C26.2769 6.25037 25.7569 6.03497 25.2147 6.03497Z" fill="white"/>
</svg>
