<svg width="27" height="31" viewBox="0 0 27 31" fill="none" xmlns="http://www.w3.org/2000/svg">
<path d="M20.9061 5.55756C19.7883 4.28106 19.1722 2.64203 19.1724 0.945312H14.1185V21.2261C14.0804 22.3239 13.6173 23.3639 12.8269 24.1268C12.0366 24.8896 10.9809 25.3157 9.88245 25.315C7.55997 25.315 5.63002 23.4178 5.63002 21.0626C5.63002 18.2494 8.34503 16.1396 11.1418 17.0064V11.8381C5.49917 11.0857 0.559814 15.469 0.559814 21.0626C0.559814 26.509 5.07393 30.3852 9.86609 30.3852C15.0017 30.3852 19.1724 26.2146 19.1724 21.0626V10.775C21.2217 12.2467 23.6822 13.0364 26.2052 13.032V7.97818C26.2052 7.97818 23.1304 8.12538 20.9061 5.55756Z" fill="white"/>
</svg>
