<svg width="33" height="24" viewBox="0 0 33 24" fill="none" xmlns="http://www.w3.org/2000/svg">
<path d="M13.2348 16.5723L21.7233 11.6656L13.2348 6.759V16.5723ZM32.1417 3.76594C32.3544 4.53465 32.5016 5.56504 32.5997 6.87348C32.7142 8.18192 32.7633 9.31045 32.7633 10.2918L32.8614 11.6656C32.8614 15.2475 32.5997 17.8807 32.1417 19.5654C31.7329 21.0373 30.7842 21.986 29.3122 22.3949C28.5435 22.6075 27.137 22.7547 24.978 22.8528C22.8518 22.9673 20.9055 23.0164 19.1064 23.0164L16.5059 23.1145C9.65294 23.1145 5.38415 22.8528 3.69953 22.3949C2.22754 21.986 1.27892 21.0373 0.870033 19.5654C0.657411 18.7966 0.510212 17.7662 0.412079 16.4578C0.29759 15.1494 0.248524 14.0208 0.248524 13.0395L0.150391 11.6656C0.150391 8.08379 0.412079 5.45056 0.870033 3.76594C1.27892 2.29395 2.22754 1.34533 3.69953 0.936439C4.46824 0.723817 5.87481 0.576618 8.03374 0.478485C10.16 0.363996 12.1063 0.31493 13.9054 0.31493L16.5059 0.216797C23.3588 0.216797 27.6276 0.478485 29.3122 0.936439C30.7842 1.34533 31.7329 2.29395 32.1417 3.76594Z" fill="white"/>
</svg>
