<svg width="85" height="98" viewBox="0 0 85 98" fill="none" xmlns="http://www.w3.org/2000/svg">
<path d="M82.9729 40.9989H72.0809V19.215H72.0762C72.076 18.6999 71.8795 18.1933 71.5009 17.8147L54.6679 0.981658C54.289 0.603014 53.7826 0.406562 53.2675 0.406364V0.401611H2.76844C1.67469 0.401611 0.788086 1.28822 0.788086 2.38197V95.4587C0.788086 96.5525 1.67469 97.4391 2.76844 97.4391H70.1006C71.1943 97.4391 72.0809 96.5525 72.0809 95.4587V56.8418H82.9729C84.0667 56.8418 84.9533 55.9552 84.9533 54.8614V42.9793C84.9533 41.8855 84.0667 40.9989 82.9729 40.9989ZM28.5131 50.9007H72.0809V52.8811H28.5131V50.9007ZM72.0809 46.94H28.5131V44.9596H72.0809V46.94ZM55.2479 7.16295L65.3196 17.2346H55.2479V7.16295ZM68.1202 93.4784H4.7488V4.36233H51.2872V19.215C51.2872 20.3088 52.1738 21.1954 53.2675 21.1954H68.1202V40.9989H26.5327V41.0025C26.2299 41.0025 25.9265 41.0682 25.6471 41.2081L13.765 47.1491C13.094 47.4846 12.6702 48.1702 12.6702 48.9204C12.6702 49.6705 13.094 50.3563 13.765 50.6916L25.6471 56.6327C25.9267 56.7725 26.2299 56.8418 26.5327 56.8418H26.5329H68.1204V93.4784H68.1202ZM24.5524 46.1835V51.6572L19.0789 48.9204L24.5524 46.1835ZM80.9925 52.8811H76.0416V44.9596H80.9925V52.8811Z" fill="#191C48"/>
<path d="M22.5726 11.293H10.6904V15.2537H22.5726V11.293Z" fill="#191C48"/>
<path d="M36.4351 19.2141H10.6904V23.1748H36.4351V19.2141Z" fill="#191C48"/>
</svg>
