<svg width="96" height="77" viewBox="0 0 96 77" fill="none" xmlns="http://www.w3.org/2000/svg">
<path d="M57.4792 10.2377C57.4792 8.98063 56.9798 7.7751 56.091 6.88625C55.2021 5.9974 53.9966 5.49805 52.7396 5.49805H43.2604C42.0033 5.49805 40.7978 5.9974 39.909 6.88625C39.0201 7.7751 38.5208 8.98063 38.5208 10.2377V38.6753C38.5208 39.9323 39.0201 41.1379 39.909 42.0267C40.7978 42.9156 42.0033 43.4149 43.2604 43.4149H52.7396C53.9966 43.4149 55.2021 42.9156 56.091 42.0267C56.9798 41.1379 57.4792 39.9323 57.4792 38.6753V29.1961C57.4792 27.9391 56.9798 26.7335 56.091 25.8447C55.2021 24.9558 53.9966 24.4565 52.7396 24.4565H38.5208M5.34351 5.49805H17.1925C19.0781 5.49805 20.8864 6.24707 22.2196 7.58034C23.5529 8.91362 24.3019 10.7219 24.3019 12.6075V17.3471C24.3019 19.2326 23.5529 21.0409 22.2196 22.3742C20.8864 23.7075 19.0781 24.4565 17.1925 24.4565M17.1925 24.4565H10.0831M17.1925 24.4565C19.0781 24.4565 20.8864 25.2055 22.2196 26.5388C23.5529 27.8721 24.3019 29.6804 24.3019 31.5659V36.3055C24.3019 38.191 23.5529 39.9993 22.2196 41.3326C20.8864 42.6659 19.0781 43.4149 17.1925 43.4149H5.34351M5.34351 57.6337C5.34351 65.4873 24.4441 71.8526 48 71.8526C71.5558 71.8526 90.6565 65.4873 90.6565 57.6337M71.698 14.9773V33.9357C71.698 36.4497 72.6967 38.8608 74.4744 40.6385C76.2521 42.4162 78.6632 43.4149 81.1772 43.4149C83.6913 43.4149 86.1024 42.4162 87.8801 40.6385C89.6578 38.8608 90.6565 36.4497 90.6565 33.9357V14.9773C90.6565 12.4632 89.6578 10.0521 87.8801 8.27444C86.1024 6.49675 83.6913 5.49805 81.1772 5.49805C78.6632 5.49805 76.2521 6.49675 74.4744 8.27444C72.6967 10.0521 71.698 12.4632 71.698 14.9773Z" stroke="white" stroke-width="9.47922" stroke-linecap="round" stroke-linejoin="round"/>
</svg>
