<svg width="28" height="27" viewBox="0 0 28 27" fill="none" xmlns="http://www.w3.org/2000/svg">
<g clip-path="url(#clip0_2002_6523)">
<mask id="mask0_2002_6523" style="mask-type:luminance" maskUnits="userSpaceOnUse" x="0" y="0" width="28" height="27">
<path d="M14.0001 26.8346C21.3639 26.8346 27.3334 20.8651 27.3334 13.5013C27.3334 6.13751 21.3639 0.167969 14.0001 0.167969C6.63628 0.167969 0.666748 6.13751 0.666748 13.5013C0.666748 20.8651 6.63628 26.8346 14.0001 26.8346Z" fill="white"/>
</mask>
<g mask="url(#mask0_2002_6523)">
<path d="M14.0001 0.167969H27.3334V3.5013L25.6667 5.16797L27.3334 6.83464V10.168L25.6667 11.8346L27.3334 13.5013V16.8346L25.6667 18.5013L27.3334 20.168V23.5013L14.0001 25.168L0.666748 23.5013V20.168L2.33341 18.5013L0.666748 16.8346V13.5013L14.0001 0.167969Z" fill="#EEEEEE"/>
<path d="M12.3334 3.5H27.3334V6.83333H12.3334V3.5ZM12.3334 10.1667H27.3334V13.5H14.0001L12.3334 10.1667ZM0.666748 16.8333H27.3334V20.1667H0.666748V16.8333ZM0.666748 23.5H27.3334V26.8333H0.666748V23.5Z" fill="#D80027"/>
<path d="M0.666748 0.167969H14.0001V13.5013H0.666748V0.167969Z" fill="#0052B4"/>
<path d="M10.4063 12.8229L13.3751 10.6875H9.72925L12.698 12.8229L11.5522 9.33333L10.4063 12.8229ZM6.18758 12.8229L9.15633 10.6875H5.5105L8.47925 12.8229L7.33341 9.33333L6.18758 12.8229ZM1.96883 12.8229L4.93758 10.6875H1.29175L4.2605 12.8229L3.11466 9.33333L1.96883 12.8229ZM10.4063 8.60417L13.3751 6.46875H9.72925L12.698 8.60417L11.5522 5.11458L10.4063 8.60417ZM6.18758 8.60417L9.15633 6.46875H5.5105L8.47925 8.60417L7.33341 5.11458L6.18758 8.60417ZM1.96883 8.60417L4.93758 6.46875H1.29175L4.2605 8.60417L3.11466 5.11458L1.96883 8.60417ZM10.4063 4.33333L13.3751 2.19792H9.72925L12.698 4.33333L11.5522 0.84375L10.4063 4.33333ZM6.18758 4.33333L9.15633 2.19792H5.5105L8.47925 4.33333L7.33341 0.84375L6.18758 4.33333ZM1.96883 4.33333L4.93758 2.19792H1.29175L4.2605 4.33333L3.11466 0.84375L1.96883 4.33333Z" fill="#EEEEEE"/>
</g>
</g>
<defs>
<clipPath id="clip0_2002_6523">
<rect width="26.6667" height="26.6667" fill="white" transform="translate(0.666748 0.167969)"/>
</clipPath>
</defs>
</svg>
