<svg width="66" height="66" viewBox="0 0 66 66" fill="none" xmlns="http://www.w3.org/2000/svg">
<path opacity="0.8" fill-rule="evenodd" clip-rule="evenodd" d="M33 65.6129C41.6493 65.6129 49.9443 62.177 56.0603 56.061C62.1762 49.9451 65.6122 41.65 65.6122 33.0008C65.6122 24.3515 62.1762 16.0565 56.0603 9.94054C49.9443 3.82458 41.6493 0.388672 33 0.388672C24.3508 0.388672 16.0558 3.82458 9.93981 9.94054C3.82385 16.0565 0.387939 24.3515 0.387939 33.0008C0.387939 41.65 3.82385 49.9451 9.93981 56.061C16.0558 62.177 24.3508 65.6129 33 65.6129ZM31.186 21.4561C30.5721 21.0465 29.8585 20.8112 29.1213 20.7754C28.3842 20.7396 27.6511 20.9046 27.0004 21.2528C26.3496 21.601 25.8056 22.1193 25.4264 22.7524C25.0472 23.3855 24.8469 24.1097 24.847 24.8478V41.1538C24.8469 41.8918 25.0472 42.616 25.4264 43.2492C25.8056 43.8823 26.3496 44.4006 27.0004 44.7488C27.6511 45.097 28.3842 45.2619 29.1213 45.2261C29.8585 45.1903 30.5721 44.9551 31.186 44.5455L43.4155 36.3924C43.9739 36.0202 44.4316 35.5158 44.7482 34.9241C45.0648 34.3325 45.2305 33.6718 45.2305 33.0008C45.2305 32.3297 45.0648 31.6691 44.7482 31.0774C44.4316 30.4857 43.9739 29.9814 43.4155 29.6091L31.186 21.4561Z" fill="white"/>
</svg>
