<svg width="19" height="22" viewBox="0 0 19 22" fill="none" xmlns="http://www.w3.org/2000/svg">
<path d="M8.35172 20.4109C8.90238 20.4109 9.34878 19.9645 9.34878 19.4138C9.34878 18.8632 8.90238 18.4168 8.35172 18.4168V20.4109ZM10.8444 1.4668L11.5494 0.761771C11.3624 0.574787 11.1088 0.46974 10.8444 0.46974V1.4668ZM15.8296 6.45208H16.8267C16.8267 6.18765 16.7217 5.93404 16.5347 5.74706L15.8296 6.45208ZM14.8326 11.4374C14.8326 11.988 15.279 12.4344 15.8296 12.4344C16.3803 12.4344 16.8267 11.988 16.8267 11.4374H14.8326ZM10.8444 16.4227C10.2937 16.4227 9.84731 16.869 9.84731 17.4197C9.84731 17.9704 10.2937 18.4168 10.8444 18.4168V16.4227ZM17.8238 18.4168C18.3744 18.4168 18.8208 17.9704 18.8208 17.4197C18.8208 16.869 18.3744 16.4227 17.8238 16.4227V18.4168ZM15.5376 13.7235C15.1482 13.3341 14.5169 13.3341 14.1276 13.7235C13.7382 14.1129 13.7382 14.7442 14.1276 15.1336L15.5376 13.7235ZM17.8238 17.4197L18.5288 18.1247C18.9182 17.7354 18.9182 17.1041 18.5288 16.7147L17.8238 17.4197ZM14.1276 19.7059C13.7382 20.0952 13.7382 20.7265 14.1276 21.1159C14.5169 21.5053 15.1482 21.5053 15.5376 21.1159L14.1276 19.7059ZM8.35172 18.4168H3.86496V20.4109H8.35172V18.4168ZM3.86496 18.4168C3.3143 18.4168 2.86791 17.9704 2.86791 17.4197H0.873793C0.873793 19.0717 2.21299 20.4109 3.86496 20.4109V18.4168ZM2.86791 17.4197V3.46091H0.873793V17.4197H2.86791ZM2.86791 3.46091C2.86791 2.91025 3.3143 2.46385 3.86496 2.46385V0.46974C2.21299 0.46974 0.873793 1.80893 0.873793 3.46091H2.86791ZM3.86496 2.46385H10.8444V0.46974H3.86496V2.46385ZM10.1393 2.17182L15.1246 7.15711L16.5347 5.74706L11.5494 0.761771L10.1393 2.17182ZM14.8326 6.45208V11.4374H16.8267V6.45208H14.8326ZM10.8444 18.4168H17.8238V16.4227H10.8444V18.4168ZM14.1276 15.1336L17.1187 18.1247L18.5288 16.7147L15.5376 13.7235L14.1276 15.1336ZM17.1187 16.7147L14.1276 19.7059L15.5376 21.1159L18.5288 18.1247L17.1187 16.7147Z" fill="white"/>
</svg>
