<svg width="25" height="25" viewBox="0 0 25 25" fill="none" xmlns="http://www.w3.org/2000/svg">
<path d="M3.20508 21.4263L4.85022 17.6375C2.24609 13.9408 2.79931 8.88401 6.14112 5.83783C9.48293 2.79165 14.5692 2.70784 18.0096 5.64226C21.4499 8.57668 22.1695 13.6125 19.6885 17.393C17.2076 21.1734 12.3014 22.5174 8.24022 20.5289L3.20508 21.4263" stroke="white" stroke-width="1.99411" stroke-linecap="round" stroke-linejoin="round"/>
<path d="M9.1875 10.4585C9.1875 10.7338 9.4107 10.957 9.68603 10.957C9.96136 10.957 10.1846 10.7338 10.1846 10.4585V9.46142C10.1846 9.18609 9.96136 8.96289 9.68603 8.96289C9.4107 8.96289 9.1875 9.18609 9.1875 9.46142V10.4585C9.1875 13.2118 11.4195 15.4438 14.1728 15.4438H15.1698C15.4452 15.4438 15.6684 15.2206 15.6684 14.9452C15.6684 14.6699 15.4452 14.4467 15.1698 14.4467H14.1728C13.8975 14.4467 13.6743 14.6699 13.6743 14.9452C13.6743 15.2206 13.8975 15.4438 14.1728 15.4438" stroke="white" stroke-width="1.99411" stroke-linecap="round" stroke-linejoin="round"/>
</svg>
