<svg width="24" height="25" viewBox="0 0 24 25" fill="none" xmlns="http://www.w3.org/2000/svg">
<path fill-rule="evenodd" clip-rule="evenodd" d="M17.802 17.4247C17.802 17.4247 17.879 17.3697 18.002 17.2757C19.845 15.8507 21 13.7857 21 11.4867C21 7.20066 16.97 3.72266 12.002 3.72266C7.032 3.72266 3 7.20066 3 11.4867C3 15.7747 7.03 19.1327 12 19.1327C12.424 19.1327 13.12 19.1047 14.088 19.0487C15.35 19.8687 17.192 20.5417 18.804 20.5417C19.303 20.5417 19.538 20.1317 19.218 19.7137C18.732 19.1177 18.062 18.1627 17.802 17.4237V17.4247Z" stroke="#292F78" stroke-width="2" stroke-linecap="round" stroke-linejoin="round"/>
<path d="M7.5 13.6328C10 16.1328 14 16.1328 16.5 13.6328" stroke="#292F78" stroke-width="2" stroke-linecap="round" stroke-linejoin="round"/>
</svg>
