<svg width="22" height="18" viewBox="0 0 22 18" fill="none" xmlns="http://www.w3.org/2000/svg">
<path d="M1.67307 3.7835C1.67307 3.22249 1.89593 2.68446 2.29262 2.28777C2.68931 1.89107 3.22734 1.66821 3.78835 1.66821H18.5954C19.1564 1.66821 19.6944 1.89107 20.0911 2.28777C20.4878 2.68446 20.7106 3.22249 20.7106 3.7835V14.3599C20.7106 14.9209 20.4878 15.459 20.0911 15.8557C19.6944 16.2524 19.1564 16.4752 18.5954 16.4752H3.78835C3.22734 16.4752 2.68931 16.2524 2.29262 15.8557C1.89593 15.459 1.67307 14.9209 1.67307 14.3599V3.7835Z" stroke="#292F78" stroke-width="2.11529" stroke-linecap="round" stroke-linejoin="round"/>
<path d="M1.67303 3.78345L11.1918 10.1293L20.7106 3.78345" stroke="#292F78" stroke-width="2.11529" stroke-linecap="round" stroke-linejoin="round"/>
</svg>
