<svg width="21" height="22" viewBox="0 0 21 22" fill="none" xmlns="http://www.w3.org/2000/svg">
<path d="M19.7076 14.3474L15.0391 12.2545L15.0212 12.2466C14.7178 12.1157 14.3864 12.0631 14.0573 12.0934C13.7282 12.1237 13.412 12.236 13.1376 12.4201C13.0991 12.4458 13.062 12.4736 13.0265 12.5033L10.8147 14.387C9.52586 13.6881 8.1944 12.3675 7.49447 11.0946L9.38409 8.84803C9.41442 8.81174 9.44256 8.77367 9.46836 8.73402C9.64758 8.46055 9.7564 8.14699 9.78511 7.82128C9.81383 7.49557 9.76155 7.16782 9.63293 6.8672C9.62987 6.86145 9.62722 6.85548 9.625 6.84936L7.53313 2.17289C7.36142 1.78181 7.06837 1.45639 6.69734 1.24481C6.3263 1.03322 5.89701 0.946713 5.47299 0.998078C4.03384 1.18713 2.71271 1.89359 1.75634 2.98551C0.799983 4.07742 0.273789 5.48013 0.276039 6.93164C0.276039 15.0225 6.85799 21.6045 14.9489 21.6045C16.4004 21.6067 17.8031 21.0805 18.895 20.1241C19.9869 19.1678 20.6934 17.8467 20.8824 16.4075C20.9338 15.9835 20.8473 15.5542 20.6357 15.1832C20.4241 14.8121 20.0987 14.5191 19.7076 14.3474ZM14.9489 19.2251C11.6896 19.2211 8.56504 17.9247 6.26042 15.6201C3.95581 13.3155 2.65935 10.1909 2.65541 6.93164C2.65314 6.11026 2.932 5.31282 3.44564 4.67185C3.95929 4.03088 4.6768 3.58496 5.47894 3.40819L7.34476 7.57209L5.44523 9.83448C5.41453 9.87107 5.38606 9.90947 5.35997 9.94949C5.17274 10.2356 5.06267 10.5652 5.04043 10.9064C5.0182 11.2475 5.08456 11.5887 5.23307 11.8966C6.16697 13.808 8.09129 15.7195 10.0226 16.6554C10.3326 16.8023 10.6754 16.8663 11.0176 16.8411C11.3597 16.8159 11.6895 16.7024 11.9746 16.5116C12.0129 16.4857 12.0497 16.4575 12.0847 16.4273L14.3084 14.5367L18.4723 16.4016C18.2955 17.2037 17.8496 17.9212 17.2086 18.4349C16.5677 18.9485 15.7702 19.2274 14.9489 19.2251Z" fill="#292F78"/>
</svg>
